PathFileType	4	(X/Y/Z)	..\data\2014015\dynamic\2014015_C4_04.trc
DataRate	CameraRate	NumFrames	NumMarkers	Units	OrigDataRate	OrigDataStartFrame	OrigNumFrames
100.000000	100.000000	4	52	mm	100.000000	71	190
Frame#	Time	L_IAS			L_IPS			R_IPS			R_IAS			L_FTC			L_FLE			L_FME			L_FAX			L_TTC			L_FAL			L_TAM			L_FCC			L_FM1			L_FM2			L_FM5			R_FTC			R_FLE			R_FME			R_FAX			R_TTC			R_FAL			R_TAM			R_FCC			R_FM1			R_FM2			R_FM5			CV7			TV10			SXS			SJN			L_SIA			L_SRS			L_SAA			L_SAE			L_HLE			L_HME			L_UOA			L_RSP			L_UHE			L_HM2			L_HM5			R_SIA			R_SRS			R_SAA			R_SAE			R_HLE			R_HME			R_UOA			R_RSP			R_UHE			R_HM2			R_HM5			
		X1	Y1	Z1	X2	Y2	Z2	X3	Y3	Z3	X4	Y4	Z4	X5	Y5	Z5	X6	Y6	Z6	X7	Y7	Z7	X8	Y8	Z8	X9	Y9	Z9	X10	Y10	Z10	X11	Y11	Z11	X12	Y12	Z12	X13	Y13	Z13	X14	Y14	Z14	X15	Y15	Z15	X16	Y16	Z16	X17	Y17	Z17	X18	Y18	Z18	X19	Y19	Z19	X20	Y20	Z20	X21	Y21	Z21	X22	Y22	Z22	X23	Y23	Z23	X24	Y24	Z24	X25	Y25	Z25	X26	Y26	Z26	X27	Y27	Z27	X28	Y28	Z28	X29	Y29	Z29	X30	Y30	Z30	X31	Y31	Z31	X32	Y32	Z32	X33	Y33	Z33	X34	Y34	Z34	X35	Y35	Z35	X36	Y36	Z36	X37	Y37	Z37	X38	Y38	Z38	X39	Y39	Z39	X40	Y40	Z40	X41	Y41	Z41	X42	Y42	Z42	X43	Y43	Z43	X44	Y44	Z44	X45	Y45	Z45	X46	Y46	Z46	X47	Y47	Z47	X48	Y48	Z48	X49	Y49	Z49	X50	Y50	Z50	X51	Y51	Z51	X52	Y52	Z52	

72	0.71	483.3005676269532	808.2404785156252	-381.8680114746094	277.5059814453126	850.5300292968752	-265.1604309082032	286.5361022949219	844.1836547851565	-168.0369262695313	517.4175415039064	817.0342407226565	-111.3496017456055	386.6507263183595	750.8571777343751	-423.4931640625001	292.0118103027344	416.7313537597657	-355.6896972656251	321.3305664062501	406.588104248047	-217.4245147705079	255.8045043945313	372.2315368652344	-357.1179199218751	319.5033874511719	348.9545898437501	-314.9164733886719	81.71205902099611	128.4257507324219	-306.0491943359376	112.1529006958008	131.5423126220703	-222.993148803711	31.13865089416505	116.6131668090821	-258.4186706542969	171.5680236816407	24.82453155517579	-206.1174316406251	193.6069641113282	34.44039535522462	-258.3594665527344	148.0657043457032	19.19932937622071	-318.4804382324219	458.8733215332032	725.0332641601564	-53.36750411987306	564.0798339843751	407.9703979492189	-125.9863204956055	583.9985961914064	402.7439880371095	-264.6264343261719	580.7854003906251	357.6594543457032	-127.5096588134766	631.6433715820314	376.6904602050782	-190.9209442138672	650.7376098632814	55.76766586303712	-178.6879577636719	674.1395263671876	92.88829803466798	-260.7705688476563	627.6471557617189	14.90966796875	-227.2443237304688	794.414978027344	57.33295059204103	-266.3699340820313	796.8936157226565	71.26233673095705	-213.3583068847657	763.6286010742189	42.90813064575196	-167.6982574462891	351.3088073730469	1297.234985351563	-243.1528625488282	272.8154602050782	1103.22314453125	-252.7985839843751	514.7899780273439	1000.207397460938	-243.2420959472657	471.015594482422	1209.111694335938	-241.9904174804688	276.6824951171876	1131.700073242188	-328.6685791015626	324.0222778320313	1249.156982421875	-326.5096740722657	366.8916625976563	1250.061157226563	-388.5532226562501	431.8873596191407	1233.208740234375	-422.7116088867189	409.4158325195314	963.6019287109377	-478.0865478515626	374.2437744140626	942.9633789062502	-397.993865966797	370.8724060058594	937.9736328125002	-446.9116210937501	510.5068664550782	769.4322509765627	-441.6929626464845	454.1625366210939	755.0022583007814	-493.782440185547	550.7824096679689	685.6782836914064	-457.3782653808595	464.7316284179689	677.4254760742189	-497.6744689941407	270.0986938476563	1123.806274414063	-145.7952423095703	316.7728271484376	1244.088745117188	-159.2881927490235	347.8794555664063	1238.593505859375	-96.2631530761719	423.6424255371095	1224.136474609375	-65.62186431884767	386.1983337402345	951.3948364257815	1.918094158172608	337.7716674804688	946.2252197265627	-86.11191558837892	339.1791381835938	936.1284790039065	-29.08562469482423	461.5148315429689	750.6609497070314	-31.02299880981446	403.4661254882814	743.7041015625001	20.7679500579834	473.5244750976564	652.0175781250001	-17.87759590148926	384.743621826172	679.6648559570314	22.15347290039063	
73	0.72	496.2539672851564	809.1779785156252	-380.9411315917969	290.1322326660157	851.5779418945315	-264.8883972167969	299.1124267578126	845.769226074219	-167.181640625	530.1808471679689	818.6556396484377	-110.8487930297852	399.9329528808595	751.2261962890626	-422.9395141601564	305.8489990234376	417.1770629882814	-357.4750976562501	335.6870422363282	405.7073364257814	-219.4517059326172	268.5021057128907	373.4519348144532	-358.9508056640626	332.8214111328126	348.2513427734376	-317.6467285156251	89.33316802978517	133.8192138671875	-307.7051391601563	121.1874694824219	135.0429077148438	-225.4767150878907	39.71328735351563	124.7178344726563	-259.7059631347657	171.9573364257813	26.03746986389161	-205.9682312011719	193.9909210205079	34.13916778564454	-258.1914672851563	148.6861419677735	19.59565925598145	-318.2037963867188	471.9851684570314	727.0926513671876	-52.68952941894533	574.2556762695314	408.9884643554689	-125.5387725830078	592.1132812500001	403.3099975585939	-264.3001098632813	590.3085937500001	358.5131225585938	-127.2347793579102	640.6454467773439	376.5836486816407	-191.3357543945313	653.2733764648439	55.37715148925783	-178.660629272461	677.5818481445314	92.05950164794923	-260.8662414550782	628.1424560546876	15.55552673339844	-226.8735504150391	796.8694458007815	51.34316253662111	-267.6154479980469	800.196960449219	65.53086090087892	-214.6866607666016	765.9686889648439	39.12127685546876	-168.2908172607422	362.9745483398438	1298.515869140625	-241.8808898925782	284.7515563964844	1104.173461914063	-251.5144958496094	527.0180053710939	1001.757141113281	-242.5504760742188	482.7768554687501	1210.491943359375	-241.1374816894532	288.2028503417969	1132.66650390625	-327.4139404296876	335.4740600585938	1250.326538085938	-325.1531066894532	378.0888671875001	1251.287841796875	-387.3074951171876	442.9820556640626	1234.462158203125	-421.6978454589845	419.517303466797	964.8867187500002	-476.7604064941407	384.4238586425782	944.6052246093752	-396.5307006835939	380.8013610839844	939.6375122070315	-445.5316772460939	518.6087036132814	769.653991699219	-440.3632202148439	462.2425537109376	755.9707031250001	-492.7953186035157	557.8441772460939	685.4610595703126	-455.7653198242189	472.1006164550782	678.2637329101564	-496.7634887695314	282.2709655761719	1124.765258789063	-144.4508361816407	328.7286987304688	1245.234375	-157.8789978027344	360.0003967285157	1239.766845703125	-94.97180175781251	435.9026794433595	1225.352905273438	-64.55962371826173	398.8717041015626	952.607849121094	2.890613079071045	350.1815185546876	947.4671630859377	-85.05242919921876	351.6754150390626	937.437683105469	-27.93685913085938	473.9215393066407	751.7232666015626	-29.96840286254884	415.6072387695314	744.8268432617189	21.79459190368653	485.3792419433595	652.9616699218751	-16.91142082214356	396.6987304687501	680.7918090820314	23.09002494812012	
74	0.73	509.3001098632814	810.2363281250002	-379.7362670898438	302.7948913574219	852.7375488281252	-264.8182678222657	311.6623535156251	847.5776367187502	-166.3643188476563	542.8850708007814	820.5279541015627	-110.4254455566407	413.4335937500001	751.5797119140626	-422.438690185547	320.5213928222657	417.4000549316407	-359.5434265136719	351.1940917968751	404.3400268554689	-221.9098052978516	281.9856567382813	374.5544738769532	-361.0635070800782	346.9850769042969	347.4328613281251	-320.7825317382813	97.88832855224612	139.4231262207032	-309.3956604003907	131.2121276855469	138.5680541992188	-228.0962829589844	49.51597595214845	133.2175750732422	-261.0201721191407	172.735580444336	27.78059577941895	-205.9136657714844	194.4838256835938	33.91374969482423	-258.1147460937501	149.4105072021485	20.46012496948243	-317.9751586914063	485.0111389160157	729.4489135742189	-51.91738510131837	584.1054077148439	410.1072387695314	-124.9342269897461	600.2949218750001	404.1011047363282	-263.7655944824219	599.5277099609376	359.4562072753907	-126.775131225586	649.4330444335939	376.6011047363282	-191.3809967041016	655.6474609375001	55.26331329345705	-178.5097351074219	680.9214477539064	91.64014434814455	-260.7322692871094	628.7038574218751	16.41076850891114	-226.4365539550782	799.0925903320315	46.09901428222657	-268.4796142578126	803.3494873046877	60.49851226806642	-215.5619354248047	768.049011230469	35.96050643920899	-168.4405822753907	374.6799316406251	1299.94921875	-240.5771636962891	296.6944885253907	1105.309326171875	-250.2174072265626	539.2404174804689	1003.503540039063	-241.8364410400391	494.5793457031251	1212.05029296875	-240.280990600586	299.6885375976563	1133.857788085938	-326.1385498046876	346.9517517089844	1251.67333984375	-323.7579040527344	389.3221130371095	1252.71337890625	-386.0259094238282	454.1292114257814	1235.912109375	-420.6350402832032	429.5717163085939	966.4153442382815	-475.4897460937501	394.5332946777345	946.492126464844	-395.128875732422	390.6542053222657	941.5444335937502	-444.2391662597657	526.5677490234376	770.0739746093752	-439.1012268066407	470.1744995117189	757.2081298828126	-491.930389404297	564.7249145507814	685.4497680664064	-454.2613830566407	479.3150634765626	679.3734130859376	-496.0130004882814	294.4882507324219	1125.93310546875	-143.0914001464844	340.7954101562501	1246.539306640625	-156.4068756103516	372.2075195312501	1241.137817382813	-93.64648437500001	448.2481994628907	1226.774047851563	-63.4865074157715	411.6915283203126	954.0542602539065	3.926877260208131	362.6435852050782	948.953796386719	-83.89247131347658	364.2584228515626	938.9721679687502	-26.68081665039063	486.2794494628907	752.9092407226564	-29.02068328857423	427.8990783691407	746.2060546875001	22.91956901550293	497.3341064453126	654.1271972656251	-15.88752365112305	408.8071289062501	682.1618652343751	24.15603828430176	
75	0.74	522.3634033203126	811.3836669921877	-378.2372741699219	315.4389648437501	853.9656372070315	-264.9562072753907	324.1213989257813	849.5669555664065	-165.6148071289063	555.4658203125001	822.623229980469	-110.0727920532227	427.0660400390626	751.9070434570314	-421.9898681640626	336.0339660644532	417.3781127929689	-361.8954772949219	367.8842163085938	402.4539489746095	-224.803939819336	296.2852783203126	375.5165405273438	-363.4732055664063	361.9804077148438	346.5258483886719	-324.2878417968751	107.4063262939453	145.263412475586	-311.1134338378907	142.1755981445313	142.1678619384766	-230.8052673339844	60.52832031250001	142.0791473388672	-262.3597412109376	174.0666656494141	30.09533309936524	-206.0139923095704	195.2080993652344	33.83331680297852	-258.1846618652344	150.3748626708985	21.92573165893555	-317.8436889648438	497.8772888183595	732.0469970703126	-51.03950881958009	593.5770263671876	411.2791748046876	-124.2006378173828	608.6437988281251	405.094207763672	-263.0198364257813	608.3875122070314	360.4367065429688	-126.156608581543	657.9812011718751	376.6932983398438	-191.0535583496094	657.8228149414064	55.35978317260744	-178.2862396240235	684.0644531250001	91.52912902832033	-260.4370727539063	629.3187866210939	17.37174606323243	-225.9708557128907	801.0460205078127	41.6479606628418	-269.0496215820313	806.3258056640627	56.2111167907715	-216.0628509521485	769.8594970703127	33.42949295043946	-168.2254486083985	386.405487060547	1301.501586914063	-239.2542266845704	308.6093444824219	1106.608154296875	-248.919662475586	551.4088134765626	1005.403015136719	-241.1058654785157	506.396453857422	1213.745971679688	-239.4305572509766	311.1080017089844	1135.256103515625	-324.8565979003907	358.4318237304688	1253.173461914063	-322.3387451171876	400.5735473632814	1254.310302734375	-384.7232971191407	465.315643310547	1237.528198242188	-419.531707763672	439.5655822753907	968.1558837890627	-474.280731201172	404.5581970214845	948.5917968750002	-393.7947082519532	400.4229125976564	943.661560058594	-443.0351562500001	534.3929443359376	770.6736450195315	-437.9246520996095	477.9516906738282	758.6822509765626	-491.181610107422	571.4423217773439	685.6300048828126	-452.8968505859376	486.3714599609376	680.7223510742189	-495.4096984863282	306.7221069335938	1127.282348632813	-141.7335510253907	352.9447326660157	1247.970947265625	-154.8914947509766	384.4782104492189	1242.672607421875	-92.3037567138672	460.6553649902345	1228.366943359375	-62.41730880737306	424.6172180175782	955.7041015625002	5.029150485992433	375.1176147460938	950.654479980469	-82.62256622314455	376.8944396972657	940.699401855469	-25.31335258483887	498.4892578125001	754.1646728515626	-28.23863220214844	440.336151123047	747.8157348632814	24.13995552062989	509.3894042968751	655.4987182617189	-14.82486343383789	421.0762329101564	683.7490844726564	25.35855865478516	
